<mxfile host="app.diagrams.net" modified="2024-06-17T21:08:39.281Z" agent="Mozilla/5.0 (Windows NT 10.0; Win64; x64) AppleWebKit/537.36 (KHTML, like Gecko) Chrome/122.0.0.0 YaBrowser/24.4.0.0 Safari/537.36" version="24.2.1" etag="ur72Kd0PW_mjwQ2CnlyY" type="github">
  <diagram name="Страница — 1" id="-qjt-Ve7xovrAR_gjcl9">
    <mxGraphModel>
      <root>
        <mxCell id="0" />
        <mxCell id="1" parent="0" />
      </root>
    </mxGraphModel>
  </diagram>
</mxfile>
